<svg xmlns="http://www.w3.org/2000/svg" xmlns:xlink="http://www.w3.org/1999/xlink" width="200" zoomAndPan="magnify" viewBox="0 0 150 149.999998" height="200" preserveAspectRatio="xMidYMid meet" version="1.0"><defs><clipPath id="810488a12a"><path d="M 3.367188 24.5 L 146.617188 24.5 L 146.617188 125.75 L 3.367188 125.75 Z M 3.367188 24.5 " clip-rule="nonzero"/></clipPath></defs><rect x="-15" width="180" fill="#ffffff" y="-15" height="179.999997" fill-opacity="1"/><rect x="-15" width="180" fill="#ffffff" y="-15" height="179.999997" fill-opacity="1"/><g clip-path="url(#810488a12a)"><path fill="#000000" d="M 75.421875 24.640625 C 95.003906 24.71875 112.726562 30.328125 125.589844 39.34375 C 138.585938 48.457031 146.628906 61.0625 146.628906 74.996094 C 146.628906 88.933594 138.585938 101.542969 125.589844 110.652344 C 112.726562 119.671875 95.003906 125.273438 75.421875 125.351562 L 75.421875 125.359375 L 74.578125 125.359375 L 74.578125 125.351562 C 54.992188 125.273438 37.269531 119.671875 24.40625 110.652344 C 11.542969 101.636719 3.53125 89.1875 3.375 75.417969 L 3.367188 75.417969 L 3.367188 74.574219 L 3.375 74.574219 C 3.53125 60.804688 11.542969 48.363281 24.40625 39.34375 C 37.269531 30.328125 54.992188 24.71875 74.578125 24.640625 Z M 75.421875 25.519531 L 75.421875 60.003906 C 82.054688 60.015625 88.480469 60.210938 94.570312 60.5625 C 93.566406 52.640625 91.761719 45.5625 89.375 39.859375 C 85.757812 31.222656 80.835938 25.792969 75.421875 25.519531 Z M 75.421875 60.878906 L 75.421875 68.019531 C 76.375 71.148438 78.84375 73.621094 81.976562 74.574219 L 95.457031 74.574219 C 95.441406 70.023438 95.171875 65.617188 94.675781 61.4375 C 88.558594 61.078125 82.097656 60.882812 75.421875 60.878906 Z M 75.421875 81.980469 L 75.421875 89.121094 C 82.097656 89.113281 88.558594 88.921875 94.675781 88.554688 C 95.171875 84.378906 95.441406 79.972656 95.457031 75.417969 L 81.976562 75.417969 C 78.84375 76.371094 76.375 78.84375 75.421875 81.980469 Z M 75.421875 89.988281 L 75.421875 124.476562 C 80.835938 124.207031 85.757812 118.777344 89.375 110.128906 C 91.761719 104.4375 93.566406 97.351562 94.570312 89.429688 C 88.480469 89.789062 82.054688 89.980469 75.421875 89.988281 Z M 74.578125 124.476562 L 74.578125 89.988281 C 67.941406 89.980469 61.519531 89.789062 55.429688 89.429688 C 56.433594 97.351562 58.238281 104.4375 60.621094 110.128906 C 64.238281 118.777344 69.160156 124.207031 74.578125 124.476562 Z M 74.578125 89.121094 L 74.578125 81.980469 C 73.625 78.84375 71.152344 76.371094 68.023438 75.417969 L 54.542969 75.417969 C 54.554688 79.972656 54.828125 84.378906 55.320312 88.554688 C 61.4375 88.921875 67.898438 89.113281 74.578125 89.121094 Z M 74.578125 68.019531 L 74.578125 60.878906 C 67.898438 60.882812 61.4375 61.078125 55.320312 61.4375 C 54.828125 65.617188 54.554688 70.023438 54.542969 74.574219 L 68.023438 74.574219 C 71.152344 73.621094 73.625 71.148438 74.578125 68.019531 Z M 74.578125 60.003906 L 74.578125 25.519531 C 69.160156 25.792969 64.238281 31.222656 60.621094 39.859375 C 58.238281 45.5625 56.433594 52.640625 55.429688 60.5625 C 61.519531 60.210938 67.941406 60.015625 74.578125 60.003906 Z M 145.726562 75.417969 L 125.355469 75.417969 C 125.328125 78.714844 124.984375 81.9375 124.351562 85.046875 L 125.253906 84.867188 C 137.453125 82.375 145.167969 79.042969 145.726562 75.417969 Z M 124.488281 75.417969 L 96.324219 75.417969 C 96.308594 79.953125 96.042969 84.335938 95.558594 88.503906 C 106.085938 87.851562 115.585938 86.722656 123.429688 85.230469 C 124.09375 82.058594 124.460938 78.777344 124.488281 75.417969 Z M 53.675781 75.417969 L 25.507812 75.417969 C 25.539062 78.777344 25.902344 82.058594 26.570312 85.230469 C 34.414062 86.722656 43.910156 87.851562 54.441406 88.503906 C 53.953125 84.335938 53.6875 79.953125 53.675781 75.417969 Z M 24.640625 75.417969 L 4.269531 75.417969 C 4.828125 79.042969 12.542969 82.375 24.742188 84.867188 L 25.644531 85.046875 C 25.015625 81.9375 24.671875 78.714844 24.640625 75.417969 Z M 4.269531 74.574219 L 24.640625 74.574219 C 24.671875 71.277344 25.015625 68.0625 25.644531 64.945312 L 24.742188 65.125 C 12.542969 67.625 4.828125 70.957031 4.269531 74.574219 Z M 25.507812 74.574219 L 53.675781 74.574219 C 53.6875 70.046875 53.953125 65.660156 54.441406 61.492188 C 43.910156 62.136719 34.414062 63.277344 26.570312 64.765625 C 25.902344 67.941406 25.539062 71.214844 25.507812 74.574219 Z M 96.324219 74.574219 L 124.488281 74.574219 C 124.460938 71.214844 124.09375 67.941406 123.429688 64.765625 C 115.585938 63.277344 106.085938 62.136719 95.558594 61.492188 C 96.042969 65.660156 96.308594 70.046875 96.324219 74.574219 Z M 125.355469 74.574219 L 145.726562 74.574219 C 145.167969 70.957031 137.453125 67.625 125.253906 65.125 L 124.351562 64.945312 C 124.984375 68.0625 125.328125 71.277344 125.355469 74.574219 Z M 95.449219 60.613281 C 105.921875 61.257812 115.378906 62.375 123.226562 63.851562 C 121.113281 54.660156 116.4375 46.449219 109.992188 40.003906 C 102.011719 32.023438 91.308594 26.753906 79.402344 25.699219 C 83.582031 27.746094 87.296875 32.660156 90.171875 39.53125 C 92.605469 45.332031 94.441406 52.554688 95.449219 60.613281 Z M 124.160156 64.027344 C 124.589844 64.109375 125.011719 64.195312 125.425781 64.28125 C 135.890625 66.421875 143.171875 69.265625 145.667969 72.496094 C 144.765625 59.851562 137.082031 48.457031 125.097656 40.054688 C 115.207031 33.113281 102.390625 28.21875 88.058594 26.351562 C 96.71875 28.671875 104.453125 33.234375 110.605469 39.386719 C 117.253906 46.035156 122.046875 54.523438 124.160156 64.027344 Z M 145.667969 77.503906 C 143.171875 80.734375 135.890625 83.578125 125.425781 85.71875 C 125.011719 85.804688 124.589844 85.882812 124.160156 85.96875 C 122.046875 95.476562 117.253906 103.964844 110.605469 110.601562 C 104.453125 116.757812 96.71875 121.328125 88.058594 123.648438 C 102.390625 121.777344 115.207031 116.886719 125.097656 109.945312 C 137.074219 101.542969 144.765625 90.144531 145.667969 77.503906 Z M 123.226562 86.148438 C 115.378906 87.617188 105.921875 88.742188 95.449219 89.378906 C 94.441406 97.445312 92.605469 104.664062 90.171875 110.46875 C 87.296875 117.335938 83.582031 122.242188 79.402344 124.292969 C 91.308594 123.246094 102.011719 117.972656 109.992188 109.996094 C 116.4375 103.546875 121.113281 95.339844 123.226562 86.148438 Z M 54.546875 89.378906 C 44.074219 88.742188 34.621094 87.617188 26.769531 86.148438 C 28.882812 95.339844 33.558594 103.546875 40.007812 109.996094 C 47.988281 117.972656 58.6875 123.246094 70.59375 124.292969 C 66.417969 122.242188 62.699219 117.335938 59.828125 110.46875 C 57.390625 104.664062 55.558594 97.445312 54.546875 89.378906 Z M 25.839844 85.96875 C 25.410156 85.882812 24.984375 85.804688 24.570312 85.71875 C 14.105469 83.578125 6.828125 80.734375 4.328125 77.503906 C 5.230469 90.144531 12.921875 101.542969 24.898438 109.945312 C 34.792969 116.886719 47.605469 121.777344 61.941406 123.648438 C 53.28125 121.328125 45.542969 116.757812 39.390625 110.601562 C 32.742188 103.964844 27.953125 95.476562 25.839844 85.96875 Z M 4.328125 72.496094 C 6.828125 69.265625 14.105469 66.421875 24.570312 64.28125 C 24.984375 64.195312 25.410156 64.109375 25.839844 64.027344 C 27.953125 54.523438 32.742188 46.035156 39.390625 39.386719 C 45.542969 33.234375 53.28125 28.671875 61.941406 26.351562 C 47.605469 28.21875 34.792969 33.113281 24.898438 40.054688 C 12.917969 48.457031 5.230469 59.851562 4.328125 72.496094 Z M 26.769531 63.851562 C 34.621094 62.375 44.074219 61.257812 54.546875 60.613281 C 55.558594 52.554688 57.390625 45.332031 59.828125 39.53125 C 62.699219 32.660156 66.417969 27.746094 70.59375 25.699219 C 58.6875 26.753906 47.988281 32.023438 40.007812 40.003906 C 33.558594 46.449219 28.882812 54.660156 26.769531 63.851562 Z M 26.769531 63.851562 " fill-opacity="1" fill-rule="nonzero"/></g></svg>