<svg xmlns="http://www.w3.org/2000/svg" xmlns:xlink="http://www.w3.org/1999/xlink" width="200" zoomAndPan="magnify" viewBox="0 0 150 149.999998" height="200" preserveAspectRatio="xMidYMid meet" version="1.0"><defs><clipPath id="90b1df179c"><path d="M 4.097656 28.105469 L 145.84375 28.105469 L 145.84375 127.855469 L 4.097656 127.855469 Z M 4.097656 28.105469 " clip-rule="nonzero"/></clipPath></defs><g clip-path="url(#90b1df179c)"><path fill="#000000" d="M 75.414062 28.25 C 94.796875 28.328125 112.335938 33.882812 125.070312 42.808594 C 137.929688 51.824219 145.894531 64.304688 145.894531 78.09375 C 145.894531 91.890625 137.929688 104.367188 125.070312 113.386719 C 112.335938 122.3125 94.796875 127.855469 75.414062 127.933594 L 75.414062 127.941406 L 74.574219 127.941406 L 74.574219 127.933594 C 55.191406 127.855469 37.652344 122.3125 24.917969 113.386719 C 12.183594 104.460938 4.257812 92.136719 4.101562 78.511719 L 4.097656 78.511719 L 4.097656 77.675781 L 4.101562 77.675781 C 4.257812 64.046875 12.183594 51.734375 24.917969 42.808594 C 37.652344 33.882812 55.191406 28.328125 74.574219 28.25 Z M 75.414062 29.125 L 75.414062 63.253906 C 81.976562 63.269531 88.335938 63.460938 94.363281 63.808594 C 93.371094 55.964844 91.585938 48.960938 89.222656 43.316406 C 85.644531 34.765625 80.773438 29.394531 75.414062 29.125 Z M 75.414062 64.121094 L 75.414062 71.1875 C 76.355469 74.285156 78.800781 76.730469 81.898438 77.675781 L 95.242188 77.675781 C 95.230469 73.171875 94.960938 68.8125 94.46875 64.671875 C 88.414062 64.316406 82.019531 64.125 75.414062 64.121094 Z M 75.414062 85.007812 L 75.414062 92.074219 C 82.019531 92.066406 88.414062 91.875 94.46875 91.515625 C 94.960938 87.382812 95.230469 83.019531 95.242188 78.511719 L 81.898438 78.511719 C 78.800781 79.453125 76.355469 81.902344 75.414062 85.007812 Z M 75.414062 92.933594 L 75.414062 127.070312 C 80.773438 126.800781 85.644531 121.425781 89.222656 112.871094 C 91.585938 107.234375 93.371094 100.222656 94.363281 92.378906 C 88.335938 92.734375 81.976562 92.925781 75.414062 92.933594 Z M 74.574219 127.070312 L 74.574219 92.933594 C 68.011719 92.925781 61.652344 92.734375 55.625 92.378906 C 56.617188 100.222656 58.402344 107.234375 60.765625 112.871094 C 64.34375 121.425781 69.214844 126.800781 74.574219 127.070312 Z M 74.574219 92.074219 L 74.574219 85.007812 C 73.632812 81.902344 71.1875 79.453125 68.089844 78.511719 L 54.746094 78.511719 C 54.757812 83.019531 55.027344 87.382812 55.519531 91.515625 C 61.574219 91.875 67.96875 92.066406 74.574219 92.074219 Z M 74.574219 71.1875 L 74.574219 64.121094 C 67.96875 64.125 61.574219 64.316406 55.519531 64.671875 C 55.027344 68.8125 54.757812 73.171875 54.746094 77.675781 L 68.089844 77.675781 C 71.1875 76.730469 73.632812 74.285156 74.574219 71.1875 Z M 74.574219 63.253906 L 74.574219 29.125 C 69.214844 29.394531 64.34375 34.765625 60.765625 43.316406 C 58.402344 48.960938 56.617188 55.964844 55.625 63.808594 C 61.652344 63.460938 68.011719 63.269531 74.574219 63.253906 Z M 145 78.511719 L 124.835938 78.511719 C 124.808594 81.773438 124.46875 84.964844 123.84375 88.039062 L 124.738281 87.863281 C 136.808594 85.394531 144.445312 82.097656 145 78.511719 Z M 123.976562 78.511719 L 96.101562 78.511719 C 96.085938 83 95.824219 87.339844 95.34375 91.464844 C 105.765625 90.820312 115.164062 89.699219 122.929688 88.226562 C 123.589844 85.085938 123.949219 81.835938 123.976562 78.511719 Z M 53.886719 78.511719 L 26.011719 78.511719 C 26.039062 81.835938 26.398438 85.085938 27.058594 88.226562 C 34.824219 89.699219 44.222656 90.820312 54.644531 91.464844 C 54.164062 87.339844 53.902344 83 53.886719 78.511719 Z M 25.152344 78.511719 L 4.988281 78.511719 C 5.542969 82.097656 13.179688 85.394531 25.25 87.863281 L 26.144531 88.039062 C 25.519531 84.964844 25.179688 81.773438 25.152344 78.511719 Z M 4.988281 77.675781 L 25.152344 77.675781 C 25.179688 74.414062 25.519531 71.230469 26.144531 68.144531 L 25.25 68.324219 C 13.179688 70.796875 5.542969 74.09375 4.988281 77.675781 Z M 26.011719 77.675781 L 53.886719 77.675781 C 53.902344 73.195312 54.164062 68.855469 54.644531 64.730469 C 44.222656 65.367188 34.824219 66.496094 27.058594 67.96875 C 26.398438 71.109375 26.039062 74.351562 26.011719 77.675781 Z M 96.101562 77.675781 L 123.976562 77.675781 C 123.949219 74.351562 123.589844 71.109375 122.929688 67.96875 C 115.164062 66.496094 105.765625 65.367188 95.34375 64.730469 C 95.824219 68.855469 96.085938 73.195312 96.101562 77.675781 Z M 124.835938 77.675781 L 145 77.675781 C 144.445312 74.09375 136.808594 70.796875 124.738281 68.324219 L 123.84375 68.144531 C 124.46875 71.230469 124.808594 74.414062 124.835938 77.675781 Z M 95.234375 63.855469 C 105.601562 64.496094 114.960938 65.601562 122.730469 67.0625 C 120.636719 57.964844 116.007812 49.839844 109.628906 43.460938 C 101.730469 35.5625 91.136719 30.34375 79.355469 29.300781 C 83.488281 31.328125 87.167969 36.191406 90.011719 42.992188 C 92.421875 48.734375 94.234375 55.882812 95.234375 63.855469 Z M 123.652344 67.238281 C 124.078125 67.316406 124.496094 67.402344 124.90625 67.488281 C 135.265625 69.605469 142.46875 72.421875 144.941406 75.617188 C 144.050781 63.105469 136.441406 51.824219 124.582031 43.507812 C 114.789062 36.640625 102.105469 31.796875 87.917969 29.945312 C 96.492188 32.242188 104.148438 36.757812 110.238281 42.851562 C 116.816406 49.429688 121.558594 57.832031 123.652344 67.238281 Z M 144.941406 80.574219 C 142.46875 83.773438 135.265625 86.585938 124.90625 88.707031 C 124.496094 88.792969 124.078125 88.871094 123.652344 88.957031 C 121.558594 98.363281 116.816406 106.765625 110.238281 113.335938 C 104.148438 119.425781 96.492188 123.949219 87.917969 126.246094 C 102.105469 124.398438 114.789062 119.554688 124.582031 112.683594 C 136.433594 104.367188 144.050781 93.089844 144.941406 80.574219 Z M 122.730469 89.132812 C 114.960938 90.585938 105.601562 91.699219 95.234375 92.328125 C 94.234375 100.3125 92.421875 107.460938 90.011719 113.203125 C 87.167969 120 83.488281 124.859375 79.355469 126.886719 C 91.136719 125.851562 101.730469 120.632812 109.628906 112.734375 C 116.007812 106.355469 120.636719 98.230469 122.730469 89.132812 Z M 54.753906 92.328125 C 44.386719 91.699219 35.027344 90.585938 27.257812 89.132812 C 29.351562 98.230469 33.980469 106.355469 40.359375 112.734375 C 48.257812 120.632812 58.851562 125.851562 70.632812 126.886719 C 66.5 124.859375 62.820312 120 59.976562 113.203125 C 57.566406 107.460938 55.753906 100.3125 54.753906 92.328125 Z M 26.335938 88.957031 C 25.910156 88.871094 25.492188 88.792969 25.082031 88.707031 C 14.722656 86.585938 7.519531 83.773438 5.046875 80.574219 C 5.9375 93.089844 13.554688 104.367188 25.40625 112.683594 C 35.199219 119.554688 47.882812 124.398438 62.070312 126.246094 C 53.496094 123.949219 45.839844 119.425781 39.75 113.335938 C 33.171875 106.765625 28.429688 98.363281 26.335938 88.957031 Z M 5.046875 75.617188 C 7.519531 72.421875 14.722656 69.605469 25.082031 67.488281 C 25.492188 67.402344 25.910156 67.316406 26.335938 67.238281 C 28.429688 57.832031 33.171875 49.429688 39.75 42.851562 C 45.839844 36.757812 53.496094 32.242188 62.070312 29.945312 C 47.882812 31.796875 35.199219 36.640625 25.40625 43.507812 C 13.546875 51.824219 5.9375 63.105469 5.046875 75.617188 Z M 27.257812 67.0625 C 35.027344 65.601562 44.386719 64.496094 54.753906 63.855469 C 55.753906 55.882812 57.566406 48.734375 59.976562 42.992188 C 62.820312 36.191406 66.5 31.328125 70.632812 29.300781 C 58.851562 30.34375 48.257812 35.5625 40.359375 43.460938 C 33.980469 49.839844 29.351562 57.964844 27.257812 67.0625 Z M 27.257812 67.0625 " fill-opacity="1" fill-rule="nonzero"/></g></svg>